<?xml version="1.0" encoding="UTF-8"?>
<svg version="1.1" xmlns="http://www.w3.org/2000/svg" width="512" height="512">
<path d="M0 0 C4.47375473 0.0210011 8.94753518 0.02970573 13.42132568 0.03967285 C22.09391779 0.06069276 30.76639196 0.09450764 39.43890381 0.1373291 C39.45872314 1.27645752 39.47854248 2.41558594 39.4989624 3.5892334 C36.65930625 85.31615522 36.65930625 85.31615522 71.62640381 154.68811035 C88.36885559 169.26799544 106.80453374 173.2138393 128.43890381 175.1373291 C129.50044678 175.23497559 130.56198975 175.33262207 131.65570068 175.43322754 C160.19832139 177.99121135 188.80420427 178.33038537 217.43890381 178.1373291 C218.29152066 181.09593551 218.5626684 183.71954605 218.55915833 186.79437256 C218.56122032 188.19095596 218.56122032 188.19095596 218.56332397 189.61575317 C218.5597287 190.62995331 218.55613342 191.64415344 218.5524292 192.68908691 C218.55257523 193.76256378 218.55272125 194.83604065 218.5528717 195.94204712 C218.55217484 199.49153664 218.54439295 203.04097374 218.53656006 206.5904541 C218.53469508 209.05096406 218.53327155 211.5114744 218.53227234 213.97198486 C218.52845347 220.44926986 218.51862853 226.92653245 218.50756836 233.40380859 C218.49734071 240.01289568 218.49277181 246.62198638 218.48773193 253.2310791 C218.47700573 266.19983866 218.46012896 279.16858269 218.43890381 292.1373291 C216.86045584 291.66501758 215.28210592 291.19237842 213.70379639 290.71960449 C212.38536491 290.3248568 212.38536491 290.3248568 211.04029846 289.9221344 C208.75664126 289.23318616 206.47765183 288.53139975 204.20062256 287.82092285 C202.84260937 287.40536305 201.48453712 286.98999618 200.12640381 286.5748291 C199.14123779 286.26255371 199.14123779 286.26255371 198.13616943 285.94396973 C186.87144785 282.5378596 175.58692152 281.81309444 163.87640381 281.8873291 C162.65243896 281.87959473 161.42847412 281.87186035 160.16741943 281.8638916 C153.2867144 281.87853919 146.79814077 282.370495 140.0446167 283.70861816 C137.45861296 284.13408641 135.05427679 284.21175869 132.43890381 284.1373291 C132.19656006 283.52244629 131.95421631 282.90756348 131.70452881 282.27404785 C129.36354967 276.13886772 129.36354967 276.13886772 124.43890381 272.1373291 C119.86991964 270.91950495 115.30831606 270.99197734 110.61534119 270.99688721 C109.72649917 270.99391608 108.83765716 270.99094496 107.92188054 270.98788381 C104.94341456 270.97921197 101.96498884 270.97768984 98.98651123 270.97619629 C96.85099705 270.97156709 94.7154837 270.96654229 92.57997131 270.96115112 C86.77826269 270.94803603 80.97656563 270.94158404 75.1748445 270.93714046 C71.55001085 270.93420866 67.92518035 270.93010367 64.30034828 270.92563629 C52.95848104 270.9119645 41.61662103 270.90229595 30.27474612 270.8984344 C17.18300339 270.89395252 4.091365 270.87639716 -9.000346 270.84743381 C-19.12108474 270.82582044 -29.24179411 270.81573032 -39.36255568 270.81439328 C-45.40686822 270.81334513 -51.45108263 270.80743484 -57.49537086 270.78957367 C-63.18102844 270.77309877 -68.86651404 270.77093475 -74.55218697 270.77971268 C-76.63709727 270.78048332 -78.72201681 270.77613673 -80.80690384 270.76625443 C-83.65700126 270.7535389 -86.5064892 270.75940971 -89.35658264 270.76983643 C-90.58885274 270.75775182 -90.58885274 270.75775182 -91.84601718 270.74542308 C-97.91663434 270.79722717 -103.69047177 271.72970862 -108.49859619 275.7623291 C-110.4300496 280.07969553 -111.40448937 284.62610223 -109.86578369 289.2076416 C-107.97755207 292.76108537 -106.32796509 294.82161832 -102.56109619 296.1373291 C-99.81090728 296.33469131 -97.16153033 296.4226736 -94.41137695 296.415802 C-93.16893404 296.4244906 -93.16893404 296.4244906 -91.90139127 296.43335474 C-89.12223018 296.45037804 -86.34323492 296.45323324 -83.56402588 296.45617676 C-81.57330924 296.46547332 -79.58259651 296.47564159 -77.59188843 296.48661804 C-72.18321518 296.51396271 -66.77456804 296.5290807 -61.36584377 296.54204607 C-55.71501603 296.55765706 -50.06424176 296.58445374 -44.41345215 296.6100769 C-33.71090012 296.6569007 -23.00833807 296.69362739 -12.30573583 296.72674978 C-0.12204499 296.76494573 12.06159219 296.8143625 24.24523783 296.86473393 C49.3097534 296.96810735 74.37430344 297.05735016 99.43890381 297.1373291 C99.43890381 297.7973291 99.43890381 298.4573291 99.43890381 299.1373291 C97.87991443 300.22590776 96.26289737 301.23166578 94.62640381 302.1998291 C78.63756341 312.12110956 65.82853513 325.55288212 55.43890381 341.1373291 C52.73923016 341.51371002 52.73923016 341.51371002 49.23374939 341.51586914 C48.5903671 341.52039927 47.9469848 341.5249294 47.28410608 341.52959681 C45.11829857 341.54126681 42.95310325 341.5315558 40.78729248 341.52209473 C39.23847554 341.52619782 37.68966168 341.53165714 36.14085388 341.53837585 C32.80029127 341.55012364 29.45989397 341.55257708 26.11931419 341.54801941 C20.83751832 341.54122604 15.55594101 341.55705031 10.27418518 341.57641602 C-0.9417301 341.61432913 -12.15762666 341.62707572 -23.37359619 341.6373291 C-35.47071628 341.64839544 -47.56773625 341.66373487 -59.66478747 341.70804167 C-64.9153674 341.72641201 -70.16569885 341.73028501 -75.41630328 341.72310638 C-78.68449369 341.72158481 -81.95255979 341.73236701 -85.22071648 341.74648476 C-86.73602963 341.75048859 -88.25136637 341.74936035 -89.76667023 341.74271202 C-91.83641442 341.73432906 -93.90529842 341.74432136 -95.97499084 341.75878906 C-97.13293057 341.75950157 -98.2908703 341.76021408 -99.48389912 341.76094818 C-102.93463012 342.18301712 -104.78783642 343.07469007 -107.56109619 345.1373291 C-110.67027426 349.4901784 -110.94098855 352.90428588 -110.13140869 358.0201416 C-109.27301164 361.20679367 -108.01428818 362.94934705 -105.56109619 365.1373291 C-101.42643613 366.79949272 -97.92614931 367.39206144 -93.48666382 367.415802 C-92.29202011 367.42696548 -91.0973764 367.43812897 -89.86653137 367.44963074 C-88.5696489 367.45179092 -87.27276642 367.45395111 -85.93658447 367.45617676 C-84.54654868 367.46548257 -83.15651844 367.47565221 -81.76649475 367.48661804 C-78.00458509 367.51385863 -74.24271275 367.52904976 -70.48073053 367.54204607 C-66.54490039 367.55770268 -62.60914618 367.58448482 -58.67337036 367.6100769 C-51.22562087 367.65681995 -43.77785703 367.69358568 -36.33003604 367.72674978 C-27.84875374 367.76500282 -19.36754778 367.81440463 -10.88632989 367.86473393 C6.55535941 367.96798722 23.99709294 368.05726905 41.43890381 368.1373291 C40.61852257 374.0525243 39.45818388 379.81095438 38.15765381 385.6373291 C31.27845939 419.13601498 39.14080442 453.0855848 57.43890381 481.5123291 C58.01640381 482.36568848 58.59390381 483.21904785 59.18890381 484.0982666 C60.43890381 486.1373291 60.43890381 486.1373291 60.43890381 488.1373291 C56.03092488 489.22702065 51.72458844 489.28526957 47.21258545 489.28259277 C45.98631691 489.28763069 45.98631691 489.28763069 44.73527527 489.29277039 C42.02318803 489.30228348 39.31116298 489.3042264 36.59906006 489.30529785 C34.67941769 489.30851977 32.75977555 489.31188451 30.84013367 489.31538391 C26.79240353 489.32138278 22.74469472 489.32322399 18.69696045 489.32263184 C14.62562491 489.32255186 10.55440496 489.32928008 6.48309326 489.34313965 C-19.93357704 489.43165072 -46.20189462 488.92682838 -72.56109619 487.1373291 C-73.76124359 487.05691376 -74.96139099 486.97649841 -76.19790649 486.89364624 C-82.20436466 486.48159672 -88.20434297 486.01944538 -94.20220947 485.49719238 C-97.02006813 485.25511522 -99.83917772 485.03420645 -102.65875244 484.81311035 C-116.41703086 483.67303412 -130.45666041 482.1006394 -142.81109619 475.4498291 C-143.46674561 475.10806641 -144.12239502 474.76630371 -144.7979126 474.41418457 C-165.98831817 463.02698586 -181.68684005 444.40451282 -189.09625244 421.5592041 C-190.77478751 415.82090718 -191.48893941 410.13932002 -192.06109619 404.1998291 C-192.1814624 402.99181641 -192.30182861 401.78380371 -192.42584229 400.53918457 C-193.65876133 387.63763171 -194.41596701 374.69807778 -195.18609619 361.7623291 C-195.24853516 360.72536896 -195.31097412 359.68840881 -195.37530518 358.62002563 C-195.82077415 351.12802724 -196.20979035 343.63431578 -196.56109619 336.1373291 C-196.6116214 335.0843161 -196.66214661 334.0313031 -196.71420288 332.94638062 C-197.94846522 305.96856863 -197.74878261 278.9525443 -197.74620771 251.95341706 C-197.74650857 247.32027738 -197.75491425 242.68720017 -197.76690674 238.05407715 C-198.15961184 83.79713712 -198.15961184 83.79713712 -184.56109619 56.1373291 C-183.72965088 54.43383301 -183.72965088 54.43383301 -182.88140869 52.69592285 C-178.15058631 43.5378266 -171.86533123 36.34064207 -164.56109619 29.1373291 C-163.80957275 28.37549316 -163.05804932 27.61365723 -162.28375244 26.82873535 C-147.98498803 13.16902187 -129.08834614 6.76008825 -109.75250244 5.1373291 C-108.82864243 5.05611816 -107.90478241 4.97490723 -106.95292664 4.89123535 C-104.99418447 4.72052367 -103.03519747 4.55260052 -101.07598877 4.3873291 C-98.21675695 4.14521768 -95.35867973 3.89207064 -92.50054932 3.6373291 C-86.19106155 3.08596148 -79.87782751 2.59787364 -73.56109619 2.1373291 C-72.29371613 2.04485901 -71.02633606 1.95238892 -69.72055054 1.8571167 C-46.46829053 0.19812504 -23.3046397 -0.12166091 0 0 Z M-108.87359619 205.2623291 C-111.16246755 209.16188772 -111.91158565 212.62079454 -111.56109619 217.1373291 C-109.14319729 221.80041983 -106.59338135 225.45990071 -101.56109619 227.1373291 C-99.50504197 227.23522691 -97.44591912 227.27233506 -95.38754272 227.277771 C-94.09486481 227.28348114 -92.80218689 227.28919128 -91.47033691 227.29507446 C-90.03460703 227.29631981 -88.59887704 227.29744491 -87.16314697 227.29846191 C-85.65359374 227.30309038 -84.14404167 227.30811508 -82.63449097 227.31350708 C-78.53115842 227.32662936 -74.42784223 227.33307557 -70.32449198 227.33751774 C-67.76136842 227.34044843 -65.19824933 227.34455321 -62.63512802 227.34902191 C-54.61701164 227.3626957 -46.59890548 227.37236323 -38.58077824 227.3762238 C-29.32239108 227.38070596 -20.06415144 227.39826165 -10.80580914 227.4272244 C-3.65073726 227.44883134 3.50429308 227.45892754 10.65939724 227.46026492 C14.93358157 227.46131356 19.20762719 227.46723389 23.48177719 227.48508453 C27.5020664 227.50154845 31.52211237 227.50372899 35.54242325 227.49494553 C37.0174347 227.49417428 38.49245914 227.49852949 39.96743774 227.50840378 C41.98204654 227.52109909 43.9967528 227.51346356 46.01138306 227.50482178 C47.13852659 227.50628834 48.26567013 227.5077549 49.42696953 227.5092659 C54.10718941 226.93131637 56.62219619 225.06746834 59.68890381 221.5748291 C62.58354367 217.54300929 62.8557553 215.13954703 62.43890381 210.1373291 C59.70005258 205.0508911 56.92878301 201.96728884 51.43890381 200.1373291 C49.41042111 200.03953855 47.37883842 200.00232791 45.3480072 199.99688721 C43.43640053 199.98832199 43.43640053 199.98832199 41.48617554 199.97958374 C40.07092295 199.97833839 38.65567025 199.97721329 37.24041748 199.97619629 C35.75219093 199.97156772 34.26396556 199.96654301 32.77574158 199.96115112 C28.73019129 199.94802868 24.68465759 199.94158245 20.63908935 199.93714046 C18.11147002 199.93420943 15.58385522 199.93010456 13.05623817 199.92563629 C5.1475766 199.91196165 -2.7610746 199.90229488 -10.66974717 199.8984344 C-19.79851411 199.89395386 -28.92713131 199.87640604 -38.05585271 199.84743381 C-45.11242728 199.82581562 -52.16895971 199.81573004 -59.22556704 199.81439328 C-63.43998036 199.81334533 -67.65425291 199.80743973 -71.86863136 199.78957367 C-75.83393269 199.77309062 -79.79898746 199.77093853 -83.76431084 199.77971268 C-85.2179391 199.78048294 -86.67158063 199.77614176 -88.12517548 199.76625443 C-90.11315949 199.75352756 -92.10124264 199.76120612 -94.08924866 199.76983643 C-95.20072171 199.76836987 -96.31219477 199.76690331 -97.45734882 199.7653923 C-102.1400105 200.32653791 -105.42493754 202.09329142 -108.87359619 205.2623291 Z " fill="#27A0EF" transform="translate(245.56109619140625,-0.1373291015625)"/>
<path d="M0 0 C2.41656897 1.91494784 4.75407174 3.89241774 7.078125 5.91796875 C7.68785156 6.39621094 8.29757812 6.87445313 8.92578125 7.3671875 C27.60614694 22.21786546 38.64680025 46.74091354 42.078125 69.91796875 C43.01109396 85.55066791 42.8222483 100.91585698 38.078125 115.91796875 C37.7275 117.0575 37.376875 118.19703125 37.015625 119.37109375 C28.49926113 143.85563988 9.7447275 163.82911408 -12.921875 175.91796875 C-37.55733611 187.71677052 -66.41195099 190.19794117 -92.55078125 181.75683594 C-103.21020361 177.98564821 -113.02692763 172.92928021 -121.921875 165.91796875 C-122.82292969 165.24121094 -123.72398437 164.56445312 -124.65234375 163.8671875 C-131.44810687 158.58992594 -136.76780348 152.78679791 -141.921875 145.91796875 C-142.84613281 144.73267578 -142.84613281 144.73267578 -143.7890625 143.5234375 C-159.86909923 121.97618828 -164.51868471 94.48771149 -161.62158203 68.19238281 C-157.50451373 41.83265632 -142.74941419 17.19158562 -121.37890625 1.1796875 C-85.75699239 -24.16640097 -36.00602089 -25.6566967 0 0 Z M-78.40625 32.0390625 C-79.75145721 33.38352196 -79.75145721 33.38352196 -81.12384033 34.75514221 C-83.01351729 36.64715518 -84.90002424 38.54177298 -86.78173828 40.44165039 C-89.18967635 42.87232313 -91.60858384 45.29171444 -94.0312767 47.70767117 C-96.34900709 50.0212524 -98.65864449 52.3428715 -100.96875 54.6640625 C-101.83643005 55.53083115 -102.70411011 56.39759979 -103.5980835 57.29063416 C-104.39941711 58.10149979 -105.20075073 58.91236542 -106.02636719 59.74780273 C-107.0851004 60.81344704 -107.0851004 60.81344704 -108.16522217 61.90061951 C-111.53411875 65.76947785 -112.32600815 68.76857688 -112.171875 73.9609375 C-111.65043726 78.04281733 -109.51541897 80.30746638 -106.734375 83.16796875 C-103.22662714 85.35056742 -100.06838311 86.49187991 -95.921875 85.91796875 C-90.05622599 83.16215495 -86.04710292 79.38746143 -81.609375 74.73046875 C-80.38625503 73.46407503 -79.16109181 72.19965056 -77.93359375 70.9375 C-77.13634888 70.10375854 -77.13634888 70.10375854 -76.32299805 69.25317383 C-74.921875 67.91796875 -74.921875 67.91796875 -72.921875 66.91796875 C-72.93519867 68.25101547 -72.93519867 68.25101547 -72.9487915 69.61099243 C-73.02903017 77.99727227 -73.08988653 86.38342268 -73.12912369 94.76999855 C-73.14997434 99.08137041 -73.17824542 103.39242437 -73.22363281 107.70361328 C-73.26718127 111.86630745 -73.29103108 116.02869636 -73.30138397 120.1916008 C-73.30875926 121.77761005 -73.3231617 123.36360311 -73.34479523 124.94948196 C-73.3739503 127.17583204 -73.37782617 129.4009303 -73.37597656 131.62744141 C-73.38930023 133.5260643 -73.38930023 133.5260643 -73.40289307 135.46304321 C-72.70700595 140.46127161 -70.51220684 143.59269222 -66.671875 146.79296875 C-63.02628712 148.28434561 -59.76674001 148.60401329 -55.921875 147.91796875 C-52.0429877 145.86874527 -49.12541771 143.74517451 -46.921875 139.91796875 C-45.92370412 135.99020933 -45.7698519 132.24307347 -45.71655273 128.19995117 C-45.70665314 127.54573181 -45.69675354 126.89151245 -45.68655396 126.21746826 C-45.65513586 124.06949397 -45.63026008 121.92149762 -45.60546875 119.7734375 C-45.58488218 118.2784215 -45.56388527 116.7834111 -45.54249573 115.28840637 C-45.48745085 111.36431427 -45.43796447 107.44017117 -45.38964844 103.51599121 C-45.33930456 99.50735974 -45.28368593 95.49880181 -45.22851562 91.49023438 C-45.12114931 83.63287478 -45.01965707 75.77545344 -44.921875 67.91796875 C-44.29526978 68.57599487 -44.29526978 68.57599487 -43.65600586 69.24731445 C-41.73465886 71.25244035 -39.79731775 73.2413833 -37.859375 75.23046875 C-37.20259766 75.92076172 -36.54582031 76.61105469 -35.86914062 77.32226562 C-31.7994979 81.47209835 -28.50163289 84.17049923 -22.921875 85.91796875 C-18.13441037 85.75288376 -14.71824316 84.87069954 -10.921875 81.91796875 C-7.78391928 78.23898619 -7.55038764 74.94053978 -7.42578125 70.296875 C-8.93898027 63.04066868 -15.90685063 57.64324819 -20.921875 52.65234375 C-21.79457031 51.77773499 -22.66726563 50.90312622 -23.56640625 50.00201416 C-25.40639607 48.16066706 -27.24889919 46.3218284 -29.09375 44.48535156 C-30.98285999 42.60341706 -32.8690621 40.71914497 -34.75 38.82910156 C-37.46863132 36.09813009 -40.19407937 33.37415848 -42.921875 30.65234375 C-43.76363281 29.80653748 -44.60539062 28.9607312 -45.47265625 28.08929443 C-46.26027344 27.30798157 -47.04789062 26.5266687 -47.859375 25.72167969 C-48.54902344 25.03362244 -49.23867188 24.34556519 -49.94921875 23.63665771 C-53.05550843 20.93028361 -55.18027565 19.98663536 -59.296875 19.60546875 C-67.86137175 20.34378744 -72.6634256 26.23470832 -78.40625 32.0390625 Z " fill="#53C2FE" transform="translate(469.921875,326.08203125)"/>
<path d="M0 0 C3.20948734 1.19802415 5.95841082 2.4854094 8.75 4.46875 C9.43433105 4.95239014 10.11866211 5.43603027 10.82373047 5.93432617 C11.54189941 6.45099854 12.26006836 6.9676709 13 7.5 C13.75039551 8.03536377 14.50079102 8.57072754 15.27392578 9.12231445 C25.82759833 16.69254927 36.01973389 24.68774494 46 33 C46.50499023 33.41862305 47.00998047 33.83724609 47.53027344 34.26855469 C58.23431168 43.15455321 68.55675842 52.40837626 78.3046875 62.33984375 C80.164408 64.21091464 80.164408 64.21091464 83.0625 66.5 C86.06908668 69.05879718 88.47421269 71.77501008 91.0234375 74.7734375 C93.20813972 77.23446569 95.51919191 79.5150401 97.875 81.8125 C102.11141328 86.00425229 105.89511406 90.39496815 109.609375 95.05078125 C111.73303902 97.67066088 113.91627129 100.209738 116.14111328 102.74243164 C124.31390832 112.07835068 131.68579595 121.98478007 139 132 C139.60569824 132.82693359 140.21139648 133.65386719 140.83544922 134.50585938 C142.54645367 136.85082911 144.24488349 139.20423342 145.9375 141.5625 C146.70900391 142.62464722 146.70900391 142.62464722 147.49609375 143.70825195 C151 148.64961141 151 148.64961141 151 152 C119.51469902 152.31616632 88.15999561 151.8326405 56.8125 148.625 C55.76271973 148.52340576 54.71293945 148.42181152 53.63134766 148.31713867 C37.07243062 146.42898359 24.73424801 138.60733826 14 126 C5.829157 114.51167188 3.66977744 102.93729237 2.546875 89.11474609 C2.37743032 87.02990261 2.19403315 84.94668637 2.0078125 82.86328125 C1.63276183 78.57819751 1.30489035 74.29061371 1 70 C0.94881012 69.28403656 0.89762024 68.56807312 0.84487915 67.83041382 C-0.1508127 53.32849062 -0.11676529 38.84228703 -0.0625 24.3125 C-0.05746997 21.94205825 -0.05290975 19.57161545 -0.04882812 17.20117188 C-0.0379531 11.46742461 -0.02133652 5.7337174 0 0 Z " fill="#4EBFFE" transform="translate(311,1)"/>
</svg>
